<svg xmlns="http://www.w3.org/2000/svg" width="145.02" height="145.019" viewBox="0 0 145.02 145.019">
  <g id="Group_42" data-name="Group 42" transform="translate(-887.544 -1945.602)">
    <path id="Path_187" data-name="Path 187" d="M1154.417,2145.85a72.51,72.51,0,1,1-72.51-72.509,72.51,72.51,0,0,1,72.51,72.509" transform="translate(-121.853 -127.739)" fill="#ef5728"/>
    <path id="Path_188" data-name="Path 188" d="M1125.777,2165.761c-10.876-11.965-11.01-50.354-11.01-50.739a2.4,2.4,0,0,0-2.4-2.4h-60.493a2.394,2.394,0,0,0-1.6.607l0,0c-.034.029-.065.059-.1.091l-9.307,9.307a2.4,2.4,0,0,0-.7,1.694v52.388a2.393,2.393,0,0,0,.7,1.656,2.391,2.391,0,0,0,1.693.7h69.46a2.394,2.394,0,0,0,2.394-2.4v-6.912h9.581a2.4,2.4,0,0,0,1.772-4.006Zm-71.5-12.076a49.561,49.561,0,0,0,4.595,11.292h-4.595Zm-9.307-28.364,4.516-4.516v45.576l-4.516,4.515Zm64.669,48.963h-61.282l4.516-4.516h56.766Zm5.063-9.307h-50.083c-8.693-10.864-10.08-39.143-10.3-47.559h55.7c.185,8.058,1.4,34,9.333,47.56H1114.7Z" transform="translate(-121.853 -127.739)" fill="#fff"/>
  </g>
</svg>
