<svg xmlns="http://www.w3.org/2000/svg" width="172.275" height="56.386" viewBox="0 0 172.275 56.386">
  <g id="Roiup_Black_horizontal_solid" transform="translate(-7.5 -1.9)">
    <g id="Group_35" data-name="Group 35" transform="translate(100.611 48.486)">
      <path id="Path_167" data-name="Path 167" d="M650.748,321.8a4.773,4.773,0,0,1,2.214.481,4.329,4.329,0,0,1,1.136.859.725.725,0,0,1-.015,1h0a.717.717,0,0,1-1.019-.044,2.971,2.971,0,0,0-.772-.612,3.313,3.313,0,0,0-1.616-.364,2.8,2.8,0,0,0-1.136.189,1.562,1.562,0,0,0-.655.5,1.161,1.161,0,0,0-.2.7,1.1,1.1,0,0,0,.306.772,2.348,2.348,0,0,0,1.165.524l1.922.437a3.754,3.754,0,0,1,1.951.917,2.23,2.23,0,0,1,.583,1.573,2.517,2.517,0,0,1-.481,1.529,3.023,3.023,0,0,1-1.311.99,5.174,5.174,0,0,1-1.98.349,5.749,5.749,0,0,1-1.806-.262,5.12,5.12,0,0,1-1.413-.7,4,4,0,0,1-.524-.466.734.734,0,0,1,.015-1.034h0a.726.726,0,0,1,1.049.015c.1.1.2.2.306.291a3.4,3.4,0,0,0,1.078.612,4,4,0,0,0,1.354.218,3.919,3.919,0,0,0,1.15-.16,1.472,1.472,0,0,0,.728-.466,1.092,1.092,0,0,0,.248-.743,1.035,1.035,0,0,0-.277-.728,2.064,2.064,0,0,0-1.049-.5l-2.082-.481a4.64,4.64,0,0,1-1.427-.539,2.213,2.213,0,0,1-1.107-1.966,2.557,2.557,0,0,1,.437-1.456,3.04,3.04,0,0,1,1.267-1.048A4.464,4.464,0,0,1,650.748,321.8Z" transform="translate(-646.887 -321.8)" fill="#2b2b2a"/>
      <path id="Path_168" data-name="Path 168" d="M733.239,323.552h0a.653.653,0,0,1-.655.655h-2.592v7.514a.653.653,0,0,1-.655.655H729.1a.653.653,0,0,1-.655-.655v-7.514h-2.592a.653.653,0,0,1-.655-.655h0a.653.653,0,0,1,.655-.655h6.713A.647.647,0,0,1,733.239,323.552Z" transform="translate(-713.796 -322.737)" fill="#2b2b2a"/>
      <path id="Path_169" data-name="Path 169" d="M818.49,322.8a.777.777,0,0,1,.772.772v5.082a3.8,3.8,0,0,1-.99,2.84,4.865,4.865,0,0,1-5.767,0,3.708,3.708,0,0,1-1-2.84v-5.082a.777.777,0,0,1,.772-.772h0a.777.777,0,0,1,.772.772v4.893a2.849,2.849,0,0,0,.583,1.98,2.217,2.217,0,0,0,1.762.641,2.3,2.3,0,0,0,1.777-.641,2.949,2.949,0,0,0,.583-1.98v-4.893a.735.735,0,0,1,.743-.772Z" transform="translate(-787.528 -322.654)" fill="#2b2b2a"/>
      <path id="Path_170" data-name="Path 170" d="M905.949,322.8a4.756,4.756,0,1,1,0,9.495H904a1.4,1.4,0,0,1-1.4-1.4v-6.684a1.4,1.4,0,0,1,1.4-1.4h1.951Zm0,8.184a2.963,2.963,0,0,0,2.315-.9,4.409,4.409,0,0,0,0-5.068,2.942,2.942,0,0,0-2.315-.9h-1.806v6.874Z" transform="translate(-865.362 -322.654)" fill="#2b2b2a"/>
      <path id="Path_171" data-name="Path 171" d="M995.044,323.572v7.951a.777.777,0,0,1-.772.772h0a.777.777,0,0,1-.772-.772v-7.951a.777.777,0,0,1,.772-.772h0A.777.777,0,0,1,995.044,323.572Z" transform="translate(-943.024 -322.654)" fill="#2b2b2a"/>
      <path id="Path_172" data-name="Path 172" d="M1043.985,321.8a4.793,4.793,0,0,1,2.388.583,3.98,3.98,0,0,1,1.558,1.689,6.485,6.485,0,0,1,0,5.243,3.98,3.98,0,0,1-1.558,1.689,4.65,4.65,0,0,1-2.388.6,4.459,4.459,0,0,1-2.374-.6,3.981,3.981,0,0,1-1.558-1.689,6.485,6.485,0,0,1,0-5.243,3.981,3.981,0,0,1,1.558-1.689A4.737,4.737,0,0,1,1043.985,321.8Zm0,1.34a2.6,2.6,0,0,0-2.519,1.631,4.723,4.723,0,0,0-.349,1.922,4.82,4.82,0,0,0,.349,1.922,2.572,2.572,0,0,0,.99,1.209,2.74,2.74,0,0,0,4.063-1.209,4.82,4.82,0,0,0,.349-1.922,4.723,4.723,0,0,0-.349-1.922,2.644,2.644,0,0,0-.99-1.209A2.747,2.747,0,0,0,1043.985,323.14Z" transform="translate(-982.325 -321.8)" fill="#2b2b2a"/>
      <path id="Path_173" data-name="Path 173" d="M1135.809,321.8a4.772,4.772,0,0,1,2.213.481,4.329,4.329,0,0,1,1.136.859.725.725,0,0,1-.015,1h0a.717.717,0,0,1-1.019-.044,2.971,2.971,0,0,0-.772-.612,3.313,3.313,0,0,0-1.616-.364,2.8,2.8,0,0,0-1.136.189,1.561,1.561,0,0,0-.655.5,1.16,1.16,0,0,0-.2.7,1.1,1.1,0,0,0,.306.772,2.349,2.349,0,0,0,1.165.524l1.922.437a3.753,3.753,0,0,1,1.951.917,2.229,2.229,0,0,1,.582,1.573,2.516,2.516,0,0,1-.48,1.529,3.022,3.022,0,0,1-1.311.99,5.174,5.174,0,0,1-1.981.349,5.749,5.749,0,0,1-1.806-.262,5.119,5.119,0,0,1-1.413-.7,4.361,4.361,0,0,1-.553-.481.694.694,0,0,1,.015-.99l.044-.044a.7.7,0,0,1,1,.015,3.331,3.331,0,0,0,.32.32,3.4,3.4,0,0,0,1.078.612,4,4,0,0,0,1.354.218,3.92,3.92,0,0,0,1.151-.16,1.472,1.472,0,0,0,.728-.466,1.091,1.091,0,0,0,.248-.743,1.036,1.036,0,0,0-.277-.728,2.064,2.064,0,0,0-1.049-.5l-2.082-.481a4.64,4.64,0,0,1-1.427-.539,2.213,2.213,0,0,1-1.107-1.966,2.557,2.557,0,0,1,.437-1.456,3.04,3.04,0,0,1,1.267-1.049A4.413,4.413,0,0,1,1135.809,321.8Z" transform="translate(-1061.29 -321.8)" fill="#2b2b2a"/>
    </g>
    <path id="Path_174" data-name="Path 174" d="M304.744,22.477c0,12.888-7.383,20.577-19.543,20.577s-19.6-7.689-19.6-20.577S273.042,1.9,285.2,1.9,304.744,9.589,304.744,22.477Zm-28.5,0c0,8.17,3.146,12.407,8.956,12.407,5.752,0,8.9-4.238,8.9-12.407s-3.146-12.407-8.9-12.407C279.391,10.07,276.245,14.307,276.245,22.477Z" transform="translate(-220.514)" fill="#2b2b2a"/>
    <path id="Path_175" data-name="Path 175" d="M569.1,46.031h-7.6a1.4,1.4,0,0,1-1.4-1.4V7.5a1.4,1.4,0,0,1,1.4-1.4h7.6a1.4,1.4,0,0,1,1.4,1.4v37.12A1.4,1.4,0,0,1,569.1,46.031Z" transform="translate(-472.127 -3.588)" fill="#2b2b2a"/>
    <path id="Path_176" data-name="Path 176" d="M700.107,19.993a1.4,1.4,0,0,1,.8,1.267v8.49c0,11.257-6.043,16.878-17.854,16.878-11.737,0-17.854-5.621-17.854-16.878V7.5a1.4,1.4,0,0,1,1.4-1.4h7.66a1.4,1.4,0,0,1,1.4,1.4V29.939c0,5.752,2.417,8.534,7.383,8.534,5.024,0,7.5-2.781,7.5-8.534V17.692a1.407,1.407,0,0,1,2.01-1.267Z" transform="translate(-561.922 -3.588)" fill="#ef5728"/>
    <path id="Path_177" data-name="Path 177" d="M33.873,30.361C38.9,28.541,41.62,24.609,41.62,18.8c0-8.228-5.446-12.7-15.072-12.7H8.9A1.4,1.4,0,0,0,7.5,7.5v37.12a1.4,1.4,0,0,0,1.4,1.4H16.31a1.4,1.4,0,0,0,1.4-1.4V24.26l3.961,6.509a1.386,1.386,0,0,0,1.194.67h1.063l8.126,13.893a1.388,1.388,0,0,0,1.209.7h8.111a1.411,1.411,0,0,0,1.18-2.17ZM24.8,24.07H19.121a1.4,1.4,0,0,1-1.4-1.4V13.964H24.8c4.412,0,6.349,1.515,6.349,5.024C31.15,22.556,29.213,24.07,24.8,24.07Z" transform="translate(0 -3.588)" fill="#2b2b2a"/>
    <path id="Path_178" data-name="Path 178" d="M917.826,6.1H890.8a1.4,1.4,0,0,0-1.4,1.4v6.844a1.394,1.394,0,0,0,.743,1.238l7.543,3.99a1.4,1.4,0,0,0,2.053-1.238V13.964H916.2c4.6,0,6.6,1.762,6.6,5.257,0,3.568-1.995,5.33-6.6,5.33H900.9a1.4,1.4,0,0,0-1.4,1.4V44.618a1.4,1.4,0,0,0,1.4,1.4h7.6a1.4,1.4,0,0,0,1.4-1.4V32.167h7.922c9.917,0,15.422-4.66,15.422-12.83C933.263,10.76,927.758,6.1,917.826,6.1Z" transform="translate(-753.473 -3.588)" fill="#ef5728"/>
  </g>
</svg>
