<svg xmlns="http://www.w3.org/2000/svg" width="31.845" height="30.395" viewBox="0 0 31.845 30.395">
  <path id="Path_6" data-name="Path 6" d="M36.346,599.527h-12.2a9.834,9.834,0,0,1-9.822-9.822V578.953a9.833,9.833,0,0,1,9.822-9.821h12.2a9.832,9.832,0,0,1,9.821,9.821v10.752a9.833,9.833,0,0,1-9.821,9.822m-12.2-28.213a7.648,7.648,0,0,0-7.639,7.639v10.752a7.648,7.648,0,0,0,7.639,7.639h12.2a7.648,7.648,0,0,0,7.638-7.639V578.953a7.648,7.648,0,0,0-7.638-7.639Z" transform="translate(-14.322 -569.132)" fill="#fff"/>
  <path id="Path_7" data-name="Path 7" d="M30.245,593.072a8.743,8.743,0,1,1,8.742-8.743,8.752,8.752,0,0,1-8.742,8.743m0-15.3a6.56,6.56,0,1,0,6.56,6.56,6.568,6.568,0,0,0-6.56-6.56" transform="translate(-14.322 -569.132)" fill="#fff"/>
  <path id="Path_8" data-name="Path 8" d="M40.667,575.856a1.814,1.814,0,1,1-1.814-1.815,1.814,1.814,0,0,1,1.814,1.815" transform="translate(-14.322 -569.132)" fill="#fff"/>
</svg>
