<svg xmlns="http://www.w3.org/2000/svg" width="53.832" height="53.829" viewBox="0 0 53.832 53.829">
  <path id="Path_12" data-name="Path 12" d="M1658.9,71.619a26.914,26.914,0,1,0,26.916,26.914A26.916,26.916,0,0,0,1658.9,71.619m0,8.048a8.9,8.9,0,1,1-8.9,8.9,8.9,8.9,0,0,1,8.9-8.9m-.006,38.744a19.752,19.752,0,0,1-12.863-4.743,3.8,3.8,0,0,1-1.331-2.884,8.979,8.979,0,0,1,9.022-8.976h10.359a8.965,8.965,0,0,1,9.007,8.976,3.78,3.78,0,0,1-1.33,2.882,19.742,19.742,0,0,1-12.864,4.745" transform="translate(-1631.985 -71.619)" fill="#014f5a"/>
</svg>


